<?xml version="1.0" encoding="iso-8859-1"?>
<!-- Uploaded to: SVG Repo, www.svgrepo.com, Generator: SVG Repo Mixer Tools -->
<svg height="800px" width="800px" version="1.1" id="Layer_1" xmlns="http://www.w3.org/2000/svg" xmlns:xlink="http://www.w3.org/1999/xlink" 
	 viewBox="0 0 512 512" xml:space="preserve">
<path style="fill:#4494FF;" d="M503.983,42.221c0-18.891-15.314-34.205-34.205-34.205H255.644v247.627h248.339V42.221z"/>
<path style="fill:#CCCCCC;" d="M255.644,255.644v248.339h214.135c18.891,0,34.205-15.314,34.205-34.205V255.644H255.644z"/>
<path style="fill:#B2B2B2;" d="M255.644,470.135v33.849h214.135c18.771,0,34.004-15.123,34.196-33.849H255.644z"/>
<path style="fill:#F2F2F2;" d="M255.644,8.017H42.221c-18.891,0-34.205,15.314-34.205,34.205v213.423h247.627V8.017z"/>
<path style="fill:#333333;" d="M8.017,255.644v214.135c0,18.891,15.314,34.205,34.205,34.205h213.423V255.644H8.017z"/>
<path style="fill:#E5E5E5;" d="M76.426,8.017H42.221c-18.891,0-34.205,15.314-34.205,34.205v213.423h34.205V42.221
	C42.221,23.331,57.535,8.017,76.426,8.017z"/>
<path style="fill:#191919;" d="M59.324,470.135c-9.446,0-17.102-7.658-17.102-17.102V255.644H8.017v214.135
	c0,18.891,15.314,34.205,34.205,34.205h213.423v-33.849H59.324z"/>
<path d="M469.779,0h-42.756c-4.427,0-8.017,3.588-8.017,8.017s3.589,8.017,8.017,8.017h42.756c14.44,0,26.188,11.747,26.188,26.188
	v205.762h-231.95V16.033h128.802c4.427,0,8.017-3.588,8.017-8.017S397.247,0,392.818,0H42.221C18.941,0,0,18.941,0,42.221v427.557
	C0,493.059,18.941,512,42.221,512h42.756c4.427,0,8.017-3.588,8.017-8.017s-3.589-8.017-8.017-8.017H42.221
	c-14.44,0-26.188-11.747-26.188-26.188V263.99c0.177,0.012,0.354,0.027,0.534,0.027h231.415v231.95H119.182
	c-4.427,0-8.017,3.588-8.017,8.017s3.589,8.017,8.017,8.017h350.597c23.28,0,42.221-18.941,42.221-42.221V42.221
	C512,18.941,493.059,0,469.779,0z M16.568,247.983c-0.181,0-0.357,0.015-0.534,0.027V42.221c0-14.441,11.748-26.188,26.188-26.188
	h205.762v231.95H16.568z M469.779,495.967H264.017v-231.95h231.95v205.762C495.967,484.219,484.218,495.967,469.779,495.967z"/>
</svg>